<svg width="214" height="31" viewBox="0 0 214 31" fill="none" xmlns="http://www.w3.org/2000/svg">
<path d="M13.2 11.08H18.96C18.96 10.04 18.88 8.93333 18.72 7.76C18.5867 6.56 18.2267 5.45333 17.64 4.44C17.0533 3.4 16.16 2.54667 14.96 1.88C13.7867 1.21333 12.1733 0.879998 10.12 0.879998C7.96 0.879998 6.24 1.25333 4.96 2C3.68 2.72 2.69333 3.73333 2 5.04C1.33333 6.34667 0.893333 7.92 0.68 9.76C0.493333 11.5733 0.4 13.56 0.4 15.72C0.4 17.9067 0.493333 19.9067 0.68 21.72C0.893333 23.5333 1.33333 25.0933 2 26.4C2.69333 27.7067 3.68 28.7067 4.96 29.4C6.24 30.0933 7.96 30.44 10.12 30.44C12.0133 30.44 13.5467 30.1467 14.72 29.56C15.92 28.9733 16.84 28.16 17.48 27.12C18.1467 26.08 18.6 24.8667 18.84 23.48C19.08 22.0933 19.2 20.6267 19.2 19.08H13.44C13.44 20.6267 13.3467 21.88 13.16 22.84C12.9733 23.7733 12.72 24.5067 12.4 25.04C12.08 25.5467 11.6933 25.8933 11.24 26.08C10.8133 26.24 10.3467 26.32 9.84 26.32C9.22667 26.32 8.68 26.2 8.2 25.96C7.74667 25.6933 7.36 25.2 7.04 24.48C6.74667 23.7333 6.52 22.6933 6.36 21.36C6.22667 20.0267 6.16 18.28 6.16 16.12C6.16 14.0933 6.21333 12.3867 6.32 11C6.42667 9.58667 6.61333 8.45333 6.88 7.6C7.14667 6.72 7.50667 6.09333 7.96 5.72C8.44 5.32 9.04 5.12 9.76 5.12C11.0667 5.12 11.96 5.6 12.44 6.56C12.9467 7.49333 13.2 9 13.2 11.08ZM27.6444 15.72C27.6444 13.8 27.6844 12.1733 27.7644 10.84C27.871 9.50667 28.0577 8.41333 28.3244 7.56C28.6177 6.70666 29.0177 6.09333 29.5244 5.72C30.0577 5.32 30.751 5.12 31.6044 5.12C32.4577 5.12 33.1377 5.32 33.6444 5.72C34.1777 6.09333 34.5777 6.70666 34.8444 7.56C35.1377 8.41333 35.3244 9.50667 35.4044 10.84C35.511 12.1733 35.5644 13.8 35.5644 15.72C35.5644 17.64 35.511 19.28 35.4044 20.64C35.3244 21.9733 35.1377 23.0667 34.8444 23.92C34.5777 24.7467 34.1777 25.36 33.6444 25.76C33.1377 26.1333 32.4577 26.32 31.6044 26.32C30.751 26.32 30.0577 26.1333 29.5244 25.76C29.0177 25.36 28.6177 24.7467 28.3244 23.92C28.0577 23.0667 27.871 21.9733 27.7644 20.64C27.6844 19.28 27.6444 17.64 27.6444 15.72ZM21.8844 15.72C21.8844 17.9067 21.9777 19.9067 22.1644 21.72C22.3777 23.5333 22.8177 25.0933 23.4844 26.4C24.1777 27.7067 25.1644 28.7067 26.4444 29.4C27.7244 30.0933 29.4444 30.44 31.6044 30.44C33.7644 30.44 35.4844 30.0933 36.7644 29.4C38.0444 28.7067 39.0177 27.7067 39.6844 26.4C40.3777 25.0933 40.8177 23.5333 41.0044 21.72C41.2177 19.9067 41.3244 17.9067 41.3244 15.72C41.3244 13.56 41.2177 11.5733 41.0044 9.76C40.8177 7.92 40.3777 6.34667 39.6844 5.04C39.0177 3.73333 38.0444 2.72 36.7644 2C35.4844 1.25333 33.7644 0.879998 31.6044 0.879998C29.4444 0.879998 27.7244 1.25333 26.4444 2C25.1644 2.72 24.1777 3.73333 23.4844 5.04C22.8177 6.34667 22.3777 7.92 22.1644 9.76C21.9777 11.5733 21.8844 13.56 21.8844 15.72ZM44.7109 1.44V30H50.4709V17.92H53.5509C54.7509 17.92 55.6043 18.24 56.1109 18.88C56.6176 19.52 56.8976 20.4 56.9509 21.52L57.1109 27C57.1376 27.56 57.1909 28.1067 57.2709 28.64C57.3509 29.1467 57.5376 29.6 57.8309 30H64.0709V29.76C63.5376 29.4667 63.1909 28.92 63.0309 28.12C62.9243 27.32 62.8443 26.16 62.7909 24.64C62.7643 23.8667 62.7376 23.1733 62.7109 22.56C62.6843 21.92 62.6443 21.3333 62.5909 20.8C62.4309 19.2 62.0176 18.04 61.3509 17.32C60.6843 16.6 59.6309 16.1333 58.1909 15.92V15.84C59.8176 15.4933 61.0176 14.72 61.7909 13.52C62.5643 12.2933 62.9509 10.72 62.9509 8.8C62.9509 6.32 62.2843 4.48 60.9509 3.28C59.6176 2.05333 57.7509 1.44 55.3509 1.44H44.7109ZM50.4709 13.92V5.68H53.1909C55.8576 5.68 57.1909 7 57.1909 9.64C57.1909 11.1867 56.8176 12.2933 56.0709 12.96C55.3243 13.6 54.2576 13.92 52.8709 13.92H50.4709ZM82.9544 1.44H64.7144V6.16H70.9544V30H76.7144V6.16H82.9544V1.44ZM90.6131 15.72C90.6131 13.8 90.6531 12.1733 90.7331 10.84C90.8398 9.50667 91.0265 8.41333 91.2931 7.56C91.5865 6.70666 91.9865 6.09333 92.4931 5.72C93.0265 5.32 93.7198 5.12 94.5731 5.12C95.4265 5.12 96.1065 5.32 96.6131 5.72C97.1465 6.09333 97.5465 6.70666 97.8131 7.56C98.1065 8.41333 98.2931 9.50667 98.3731 10.84C98.4798 12.1733 98.5331 13.8 98.5331 15.72C98.5331 17.64 98.4798 19.28 98.3731 20.64C98.2931 21.9733 98.1065 23.0667 97.8131 23.92C97.5465 24.7467 97.1465 25.36 96.6131 25.76C96.1065 26.1333 95.4265 26.32 94.5731 26.32C93.7198 26.32 93.0265 26.1333 92.4931 25.76C91.9865 25.36 91.5865 24.7467 91.2931 23.92C91.0265 23.0667 90.8398 21.9733 90.7331 20.64C90.6531 19.28 90.6131 17.64 90.6131 15.72ZM84.8531 15.72C84.8531 17.9067 84.9465 19.9067 85.1331 21.72C85.3465 23.5333 85.7865 25.0933 86.4531 26.4C87.1465 27.7067 88.1331 28.7067 89.4131 29.4C90.6931 30.0933 92.4131 30.44 94.5731 30.44C96.7331 30.44 98.4531 30.0933 99.7331 29.4C101.013 28.7067 101.986 27.7067 102.653 26.4C103.346 25.0933 103.786 23.5333 103.973 21.72C104.186 19.9067 104.293 17.9067 104.293 15.72C104.293 13.56 104.186 11.5733 103.973 9.76C103.786 7.92 103.346 6.34667 102.653 5.04C101.986 3.73333 101.013 2.72 99.7331 2C98.4531 1.25333 96.7331 0.879998 94.5731 0.879998C92.4131 0.879998 90.6931 1.25333 89.4131 2C88.1331 2.72 87.1465 3.73333 86.4531 5.04C85.7865 6.34667 85.3465 7.92 85.1331 9.76C84.9465 11.5733 84.8531 13.56 84.8531 15.72ZM107.8 1.44V30H113.08V7.2H113.16L118.24 30H122.72L127.8 7.2H127.88V30H133.16V1.44H124.64L120.52 21.6H120.44L116.36 1.44H107.8ZM149.209 19.24L146.449 6.4H146.369L143.609 19.24H149.209ZM149.969 1.44L157.529 30H151.529L150.209 23.96H142.609L141.289 30H135.289L142.849 1.44H149.969ZM166.156 1.44H159.516V30H164.796V10H164.876L171.916 30H178.476V1.44H173.196V21H173.116L166.156 1.44ZM182.764 30H188.524V1.44H182.764V30ZM204.717 19.24L201.957 6.4H201.877L199.117 19.24H204.717ZM205.477 1.44L213.037 30H207.037L205.717 23.96H198.117L196.797 30H190.797L198.357 1.44H205.477Z" fill="#D52F27"/>
</svg>
