<svg width="44" height="44" viewBox="0 0 44 44" fill="none" xmlns="http://www.w3.org/2000/svg">
<path d="M18.7267 4.86138L2.51305 32.1998C2.17876 32.7845 2.00189 33.4474 2.00002 34.1226C1.99814 34.7978 2.17134 35.4617 2.50238 36.0483C2.83342 36.6349 3.31076 37.1237 3.88692 37.4661C4.46307 37.8085 5.11795 37.9926 5.7864 38H38.2136C38.8821 37.9926 39.5369 37.8085 40.1131 37.4661C40.6892 37.1237 41.1666 36.6349 41.4976 36.0483C41.8287 35.4617 42.0019 34.7978 42 34.1226C41.9981 33.4474 41.8212 32.7845 41.4869 32.1998L25.2733 4.86138C24.9321 4.29316 24.4516 3.82337 23.8782 3.49733C23.3049 3.17128 22.658 3 22 3C21.342 3 20.6951 3.17128 20.1218 3.49733C19.5484 3.82337 19.0679 4.29316 18.7267 4.86138V4.86138Z" stroke="white" stroke-width="3" stroke-linecap="round" stroke-linejoin="round"/>
<path d="M22 12L22 24" stroke="white" stroke-width="3" stroke-linecap="round" stroke-linejoin="round"/>
<circle cx="22" cy="32" r="1.5" fill="white" stroke="white"/>
</svg>
