<svg width="12" height="13" viewBox="0 0 12 13" fill="none" xmlns="http://www.w3.org/2000/svg">
<path d="M9.88889 6H2.11111C1.49746 6 1 6.48842 1 7.09091V10.9091C1 11.5116 1.49746 12 2.11111 12H9.88889C10.5025 12 11 11.5116 11 10.9091V7.09091C11 6.48842 10.5025 6 9.88889 6Z" fill="#F2994A" stroke="#F2994A" stroke-width="2" stroke-linecap="round" stroke-linejoin="round"/>
<path d="M3 6V3.77778C3 3.04107 3.31607 2.33453 3.87868 1.81359C4.44129 1.29266 5.20435 1 6 1C6.79565 1 7.55871 1.29266 8.12132 1.81359C8.68393 2.33453 9 3.04107 9 3.77778V6" stroke="#F2994A" stroke-width="2" stroke-linecap="round" stroke-linejoin="round"/>
</svg>
