<svg width="40" height="40" viewBox="0 0 40 40" fill="none" xmlns="http://www.w3.org/2000/svg">
<path d="M20 30C25.5228 30 30 25.5228 30 20C30 14.4772 25.5228 10 20 10C14.4772 10 10 14.4772 10 20C10 25.5228 14.4772 30 20 30Z" stroke="#828282" stroke-width="2" stroke-linecap="round" stroke-linejoin="round"/>
<path d="M17.0898 17C17.3249 16.3316 17.789 15.7681 18.3998 15.4091C19.0106 15.0501 19.7287 14.9189 20.427 15.0387C21.1253 15.1584 21.7587 15.5215 22.2149 16.0635C22.6712 16.6055 22.9209 17.2915 22.9198 18C22.9198 20 19.9198 21 19.9198 21" stroke="#828282" stroke-width="2" stroke-linecap="round" stroke-linejoin="round"/>
<circle cx="20" cy="25" r="0.5" stroke="#828282"/>
</svg>
